<svg width="698" height="351" viewBox="0 0 698 351" fill="none" xmlns="http://www.w3.org/2000/svg">
<path fill-rule="evenodd" clip-rule="evenodd" d="M0.790832 273.456C0.756969 274.383 2.54878 275.349 7.59687 277.181C19.4625 281.388 32.796 283.971 44.3742 284.211L49.6574 284.36L50.4177 288.578C51.9958 296.797 55.8462 306.01 61.1936 314.42C65.536 321.305 72.5182 328.318 77.0872 330.4C77.5073 330.599 75.9612 330.786 73.6854 330.856C69.5836 330.943 68.2296 331.331 67.351 332.59C66.2741 334.1 67.8726 334.531 75.6296 334.917C79.9261 335.14 84.508 335.646 86.0221 336.105C87.5644 336.536 89.1353 336.883 89.5289 336.829C90.625 336.752 91.8132 335.411 91.6785 334.483C91.6251 334.033 89.9809 331.916 87.634 329.37C83.1115 324.339 81.8316 322.364 79.4753 316.813C78.5621 314.588 77.5883 312.584 77.3371 312.33C75.8576 310.832 75.3704 316.394 76.6987 320.113C77.1956 321.521 78.1938 323.606 78.9482 324.765C79.7274 325.95 80.2546 326.993 80.1416 327.104C80.0568 327.188 78.936 326.732 77.6763 326.022C74.0899 324.03 68.6448 318.29 65.2235 312.847C61.6599 307.204 58.9107 301.594 57.1203 296.382C55.5994 292.016 53.8241 284.389 54.2481 283.97C54.3611 283.859 55.7405 283.39 57.3167 282.894C58.8646 282.426 60.8917 281.708 61.7682 281.289C69.519 277.654 73.1052 270.651 70.9869 263.468C70.2985 261.245 69.7706 260.314 68.1498 258.447C65.7229 255.707 64.0683 254.767 61.2882 254.609C57.385 254.388 53.5992 257.345 51.4584 262.307C50.0615 265.585 49.3601 269.46 49.1869 275.221L49.0395 280.336L45.2762 280.2C36.3674 279.836 24.071 277.624 12.0599 274.231C3.64098 271.876 2.26615 271.614 1.41821 272.452C1.07903 272.787 0.767071 273.262 0.793937 273.459L0.790832 273.456ZM60.6127 258.341C63.7064 257.742 66.813 260.096 67.9965 264.008C70.1759 270.907 65.4434 277.033 56.2627 279.226L53.7308 279.828L53.5165 278.141C53.1673 275.583 53.8866 268.334 54.7182 265.614C56.0394 261.462 58.1345 258.834 60.6095 258.344L60.6127 258.341Z" fill="#A5C8B1"/>
<path d="M658.687 64.5776C659.44 67.9794 660.953 71.0301 663.643 73.3004C666.14 75.4069 669.291 76.548 672.486 77.0153C680.106 78.1303 689.962 76.5314 694.353 69.4905C696.748 65.6498 697.575 60.8081 697.891 56.3506C698.22 51.7034 697.796 47.0087 696.729 42.4753C694.777 34.1772 690.534 26.3369 684.447 20.3873C674.702 10.8627 658.833 3.63922 645.255 8.3173C637.946 10.8366 632.438 16.9499 630.007 24.2683C628.693 28.2228 628.248 32.5403 629.581 36.5494C630.752 40.0722 632.881 43.2131 635.43 45.8724C640.699 51.3713 648.051 55.416 655.603 56.4669C663.452 57.5605 672.542 54.4528 675.404 46.3753C678.372 37.9965 674.771 27.8955 670.163 20.8119C665.318 13.3607 658.145 7.5487 649.773 4.61185C632.846 -1.32589 613.127 4.77078 602.916 19.7848C598.332 26.5267 596.235 35.2091 599.795 42.8881C603.455 50.7853 611.627 55.4871 620.135 55.6532C628.837 55.8216 638.549 51.478 642.878 43.5903C647.05 35.9872 643.225 27.1719 635.764 23.4973C627.779 19.5641 617.787 22.743 611.794 28.8491C606.574 34.1701 603.724 42.0246 605.208 49.4545C605.999 53.4162 608.001 56.9722 610.727 59.9066C611.594 60.8413 613.542 60.0561 612.491 58.9269C607.363 53.4067 605.768 45.8416 608.341 38.7153C610.838 31.8002 616.566 26.2966 623.676 24.4178C627.758 23.3384 632.252 23.5353 635.941 25.7462C639.107 27.6416 641.592 30.8513 642.252 34.5378C643.762 42.9783 635.64 49.6751 628.582 52.1422C620.854 54.8442 611.902 53.8408 605.919 47.8935C600.325 42.3354 599.086 34.4239 601.811 27.1245C604.459 20.0362 610.063 14.2645 616.338 10.272C623.223 5.89287 631.308 3.80765 639.444 4.46239C655.862 5.78136 669.942 18.0317 673.409 34.3077C674.283 38.4093 674.403 42.9355 672.57 46.8023C670.806 50.5244 667.247 52.937 663.374 54.0021C656.783 55.8192 649.618 53.5182 643.95 50.0642C638.318 46.6315 632.792 41.2489 631.428 34.5093C629.927 27.1008 634.174 18.5702 639.811 13.9538C650.256 5.40417 665.113 9.11912 675.538 15.6926C688.706 23.9979 696.602 38.9929 696.138 54.6687C696.016 58.8249 695.431 63.2444 693.636 67.0281C691.719 71.0704 688.219 73.4996 684.014 74.6905C677.913 76.4175 669.798 76.5859 664.481 72.6005C661.78 70.5746 660.093 67.5524 659.16 64.3451C659.014 63.8564 658.599 64.1838 658.687 64.5776Z" fill="#455A64"/>
<path d="M630.599 36.0692C630.085 32.6251 628.79 29.4755 626.264 27.0177C623.92 24.7371 620.854 23.3708 617.698 22.6726C610.171 21.0068 600.222 21.882 595.346 28.5771C592.685 32.2291 591.521 36.9928 590.893 41.4108C590.238 46.0168 590.333 50.725 591.08 55.3194C592.447 63.7291 596.132 71.8493 601.79 78.2202C610.849 88.4193 626.182 96.7718 640.062 93.0997C647.534 91.122 653.459 85.4324 656.398 78.3181C657.987 74.4739 658.734 70.2047 657.685 66.1133C656.763 62.5183 654.858 59.234 652.5 56.3989C647.626 50.5366 640.572 45.9715 633.108 44.3745C625.351 42.7133 616.06 45.1475 612.638 52.9868C609.088 61.1185 611.975 71.4445 616.077 78.8374C620.391 86.614 627.142 92.9268 635.292 96.4625C651.771 103.611 671.879 98.9728 683.124 84.758C688.172 78.3748 690.873 69.877 687.859 61.9673C684.758 53.8326 676.932 48.5531 668.452 47.7681C659.779 46.9666 649.781 50.5869 644.906 58.1302C640.21 65.4013 643.41 74.4626 650.598 78.6669C658.293 83.1671 668.489 80.7277 674.898 75.0805C680.481 70.1594 683.876 62.5414 682.916 55.0309C682.404 51.0263 680.655 47.3376 678.14 44.2155C677.34 43.2211 675.341 43.8616 676.31 45.0631C681.042 50.9364 682.103 58.5897 679.036 65.5023C676.059 72.21 669.956 77.2761 662.728 78.6303C658.578 79.4084 654.106 78.8849 650.579 76.4135C647.552 74.2945 645.297 70.9157 644.897 67.1949C643.982 58.6756 652.558 52.595 659.775 50.6509C667.678 48.5217 676.542 50.1733 682.097 56.5343C687.291 62.4794 687.973 70.4518 684.741 77.5258C681.602 84.3951 675.604 89.7373 669.061 93.2581C661.881 97.1196 653.666 98.6084 645.591 97.3636C629.297 94.8539 616.103 81.6235 613.783 65.1551C613.198 61.005 613.396 56.4867 615.496 52.7677C617.518 49.1879 621.239 47.0434 625.179 46.2642C631.885 44.9338 638.876 47.7482 644.29 51.6022C649.671 55.4323 654.81 61.1975 655.698 68.0115C656.677 75.5019 651.84 83.6917 645.89 87.8805C634.866 95.6379 620.298 90.8548 610.353 83.5463C597.792 74.3128 590.963 58.7982 592.525 43.2141C592.938 39.0822 593.831 34.7216 595.888 31.0825C598.085 27.1948 601.749 25.0295 606.029 24.1492C612.24 22.8729 620.351 23.2961 625.378 27.6539C627.933 29.8691 629.404 33.003 630.11 36.2663C630.222 36.7638 630.659 36.4679 630.599 36.0692Z" fill="#455A64"/>
<path d="M240.173 1.55082C241.884 0.910715 243.677 0.52239 245.498 0.397833C247.213 0.260213 248.939 0.428136 250.597 0.893888C252.152 1.37358 253.59 2.17753 254.817 3.25348C256.142 4.41799 257.142 5.91066 257.719 7.58388C258.226 8.86228 258.475 10.2296 258.451 11.6059C258.402 12.8209 258.178 14.0221 257.785 15.1721C257.392 16.2922 256.906 17.3774 256.334 18.4166C255.762 19.4355 255.216 20.4142 254.71 21.3392C254.225 22.1953 253.815 23.0925 253.485 24.0206C253.171 24.8786 253.111 25.8102 253.312 26.702C253.385 27.1109 253.349 27.5321 253.206 27.922C253.138 28.1121 253.029 28.2844 252.886 28.426C252.743 28.5676 252.57 28.6749 252.38 28.7398L248.16 30.3352C247.768 30.4962 247.328 30.4962 246.936 30.3352C246.742 30.2587 246.569 30.1376 246.43 29.9816C246.292 29.8256 246.191 29.6391 246.137 29.437C245.702 28.1164 245.534 26.7214 245.644 25.3345C245.769 24.0924 246.051 22.8714 246.483 21.7012C246.903 20.5809 247.42 19.4997 248.027 18.4702C248.622 17.4513 249.168 16.486 249.665 15.5743C250.112 14.7471 250.474 13.8755 250.743 12.9734C251.003 12.1994 251.003 11.361 250.743 10.587C250.5 9.91098 250.099 9.30421 249.572 8.81858C249.046 8.33295 248.411 7.98291 247.721 7.79838C246.012 7.35775 244.207 7.49435 242.582 8.18718C241.097 8.72103 239.812 9.70215 238.899 10.9973C237.987 12.2925 237.493 13.839 237.484 15.4269C237.475 15.8141 237.394 16.1963 237.244 16.553C237.044 16.884 236.724 17.1242 236.352 17.2234L231.932 18.8858C231.62 19.0091 231.273 19.0091 230.96 18.8858C230.799 18.8187 230.655 18.7166 230.538 18.5868C230.42 18.457 230.333 18.3028 230.282 18.135C229.833 16.7234 229.737 15.2223 230.002 13.7644C230.269 12.0947 230.833 10.487 231.666 9.0184C232.549 7.36588 233.696 5.87111 235.061 4.59416C236.551 3.25258 238.287 2.21858 240.173 1.55082ZM253.898 31.9708C254.087 31.8882 254.291 31.8455 254.497 31.8455C254.703 31.8455 254.907 31.8882 255.096 31.9708C255.286 32.0544 255.457 32.1759 255.599 32.328C255.741 32.4801 255.851 32.6596 255.922 32.8557L257.706 37.6955C257.788 37.8859 257.83 38.0913 257.83 38.2988C257.83 38.5064 257.788 38.7118 257.706 38.9021C257.623 39.0934 257.502 39.2656 257.351 39.4085C257.2 39.5514 257.022 39.6619 256.827 39.7334L252.128 41.4897C251.938 41.5723 251.735 41.615 251.528 41.615C251.322 41.615 251.118 41.5723 250.929 41.4897C250.739 41.4111 250.567 41.2928 250.424 41.1427C250.282 40.9925 250.173 40.8138 250.104 40.6182L248.16 35.7784C248.078 35.5857 248.035 35.3781 248.035 35.1684C248.035 34.9586 248.078 34.751 248.16 34.5583C248.239 34.3683 248.357 34.1972 248.506 34.0563C248.655 33.9153 248.832 33.8077 249.026 33.7405L253.898 31.9708Z" fill="#F2D2A0"/>
<g opacity="0.2">
<path d="M240.173 1.55082C241.884 0.910715 243.677 0.52239 245.498 0.397833C247.213 0.260213 248.939 0.428136 250.597 0.893888C252.152 1.37358 253.59 2.17753 254.817 3.25348C256.142 4.41799 257.142 5.91066 257.719 7.58388C258.226 8.86228 258.475 10.2296 258.451 11.6059C258.402 12.8209 258.178 14.0221 257.785 15.1721C257.392 16.2922 256.906 17.3774 256.334 18.4166C255.762 19.4355 255.216 20.4142 254.71 21.3392C254.225 22.1953 253.815 23.0925 253.485 24.0206C253.171 24.8786 253.111 25.8102 253.312 26.702C253.385 27.1109 253.349 27.5321 253.206 27.922C253.138 28.1121 253.029 28.2844 252.886 28.426C252.743 28.5676 252.57 28.6749 252.38 28.7398L248.16 30.3352C247.768 30.4962 247.328 30.4962 246.936 30.3352C246.742 30.2587 246.569 30.1376 246.43 29.9816C246.292 29.8256 246.191 29.6391 246.137 29.437C245.702 28.1164 245.534 26.7214 245.644 25.3345C245.769 24.0924 246.051 22.8714 246.483 21.7012C246.903 20.5809 247.42 19.4997 248.027 18.4702C248.622 17.4513 249.168 16.486 249.665 15.5743C250.112 14.7471 250.474 13.8755 250.743 12.9734C251.003 12.1994 251.003 11.361 250.743 10.587C250.5 9.91098 250.099 9.30421 249.572 8.81858C249.046 8.33295 248.411 7.98291 247.721 7.79838C246.012 7.35775 244.207 7.49435 242.582 8.18718C241.097 8.72103 239.812 9.70215 238.899 10.9973C237.987 12.2925 237.493 13.839 237.484 15.4269C237.475 15.8141 237.394 16.1963 237.244 16.553C237.044 16.884 236.724 17.1242 236.352 17.2234L231.932 18.8858C231.62 19.0091 231.273 19.0091 230.96 18.8858C230.799 18.8187 230.655 18.7166 230.538 18.5868C230.42 18.457 230.333 18.3028 230.282 18.135C229.833 16.7234 229.737 15.2223 230.002 13.7644C230.269 12.0947 230.833 10.487 231.666 9.0184C232.549 7.36588 233.696 5.87111 235.061 4.59416C236.551 3.25258 238.287 2.21858 240.173 1.55082ZM253.898 31.9708C254.087 31.8882 254.291 31.8455 254.497 31.8455C254.703 31.8455 254.907 31.8882 255.096 31.9708C255.286 32.0544 255.457 32.1759 255.599 32.328C255.741 32.4801 255.851 32.6596 255.922 32.8557L257.706 37.6955C257.788 37.8859 257.83 38.0913 257.83 38.2988C257.83 38.5064 257.788 38.7118 257.706 38.9021C257.623 39.0934 257.502 39.2656 257.351 39.4085C257.2 39.5514 257.022 39.6619 256.827 39.7334L252.128 41.4897C251.938 41.5723 251.735 41.615 251.528 41.615C251.322 41.615 251.118 41.5723 250.929 41.4897C250.739 41.4111 250.567 41.2928 250.424 41.1427C250.282 40.9925 250.173 40.8138 250.104 40.6182L248.16 35.7784C248.078 35.5857 248.035 35.3781 248.035 35.1684C248.035 34.9586 248.078 34.751 248.16 34.5583C248.239 34.3683 248.357 34.1972 248.506 34.0563C248.655 33.9153 248.832 33.8077 249.026 33.7405L253.898 31.9708Z" fill="white"/>
</g>
<path d="M290.242 6.35045C291.559 6.64331 292.828 7.12648 294.009 7.78498C295.139 8.40828 296.153 9.22487 297.004 10.1982C297.806 11.1389 298.4 12.2402 298.748 13.4292C299.032 14.5652 299.076 15.7484 298.879 16.9028C298.682 18.0571 298.248 19.1573 297.603 20.1326C297.084 20.8803 296.456 21.5447 295.74 22.1034C295.04 22.6392 294.296 23.1146 293.516 23.5246L291.307 24.6909C290.642 25.0854 290.014 25.5385 289.43 26.045C288.895 26.4496 288.484 26.9979 288.245 27.627C288.129 27.9164 287.936 28.1673 287.686 28.351C287.567 28.4409 287.431 28.5031 287.286 28.5333C287.141 28.5634 286.991 28.5607 286.847 28.5253L283.612 27.7879C283.456 27.7545 283.309 27.6898 283.178 27.5976C283.048 27.5055 282.937 27.3878 282.853 27.2516C282.761 27.1264 282.7 26.9803 282.677 26.826C282.654 26.6716 282.668 26.514 282.72 26.3668C282.973 25.3607 283.426 24.4166 284.051 23.5916C284.629 22.8616 285.3 22.2124 286.048 21.661C286.768 21.1498 287.529 20.7013 288.325 20.3203C289.11 19.9315 289.856 19.5427 290.534 19.1673C291.153 18.8407 291.734 18.4449 292.265 17.9875C292.731 17.5981 293.058 17.0662 293.197 16.4726C293.319 15.9486 293.313 15.4024 293.178 14.8815C293.044 14.3605 292.785 13.8805 292.425 13.4829C291.537 12.4953 290.347 11.8347 289.043 11.6059C287.908 11.3294 286.716 11.4085 285.627 11.8325C284.537 12.2566 283.602 13.0054 282.946 13.9789C282.785 14.2156 282.582 14.4202 282.347 14.5822C282.215 14.6394 282.072 14.6689 281.928 14.6689C281.784 14.6689 281.641 14.6394 281.509 14.5822L278.061 13.8046C277.818 13.7515 277.604 13.6078 277.461 13.4024C277.389 13.2933 277.341 13.1698 277.32 13.0402C277.299 12.9106 277.307 12.7781 277.342 12.6516C277.631 11.5813 278.18 10.6001 278.939 9.796C279.786 8.85659 280.791 8.07584 281.908 7.49003C283.133 6.83585 284.455 6.38324 285.822 6.14935C287.294 5.92214 288.796 5.99049 290.242 6.35045ZM286.487 31.0726C286.639 31.1025 286.783 31.1646 286.909 31.2547C287.036 31.3449 287.141 31.461 287.22 31.5954C287.304 31.727 287.362 31.8742 287.389 32.0284C287.417 32.1826 287.413 32.3408 287.379 32.4937L286.541 36.261C286.465 36.5644 286.276 36.8268 286.013 36.994C285.751 37.1612 285.434 37.2203 285.13 37.1593L281.442 36.328C281.291 36.2965 281.147 36.2338 281.021 36.1438C280.895 36.0539 280.789 35.9385 280.71 35.8052C280.625 35.6736 280.568 35.5265 280.54 35.3722C280.513 35.218 280.516 35.0598 280.55 34.9069L281.442 31.1396C281.473 30.9873 281.535 30.8431 281.625 30.7162C281.714 30.5893 281.829 30.4824 281.961 30.4022C282.089 30.3175 282.233 30.2596 282.384 30.232C282.535 30.2043 282.69 30.2075 282.84 30.2414L286.487 31.0726Z" fill="#F2D2A0"/>
<g opacity="0.6">
<path d="M290.242 6.35045C291.559 6.64331 292.828 7.12648 294.009 7.78498C295.139 8.40828 296.153 9.22487 297.004 10.1982C297.806 11.1389 298.4 12.2402 298.748 13.4292C299.032 14.5652 299.076 15.7484 298.879 16.9028C298.682 18.0571 298.248 19.1573 297.603 20.1326C297.084 20.8803 296.456 21.5447 295.74 22.1034C295.04 22.6392 294.296 23.1146 293.516 23.5246L291.307 24.6909C290.642 25.0854 290.014 25.5385 289.43 26.045C288.895 26.4496 288.484 26.9979 288.245 27.627C288.129 27.9164 287.936 28.1673 287.686 28.351C287.567 28.4409 287.431 28.5031 287.286 28.5333C287.141 28.5634 286.991 28.5607 286.847 28.5253L283.612 27.7879C283.456 27.7545 283.309 27.6898 283.178 27.5976C283.048 27.5055 282.937 27.3878 282.853 27.2516C282.761 27.1264 282.7 26.9803 282.677 26.826C282.654 26.6716 282.668 26.514 282.72 26.3668C282.973 25.3607 283.426 24.4166 284.051 23.5916C284.629 22.8616 285.3 22.2124 286.048 21.661C286.768 21.1498 287.529 20.7013 288.325 20.3203C289.11 19.9315 289.856 19.5427 290.534 19.1673C291.153 18.8407 291.734 18.4449 292.265 17.9875C292.731 17.5981 293.058 17.0662 293.197 16.4726C293.319 15.9486 293.313 15.4024 293.178 14.8815C293.044 14.3605 292.785 13.8805 292.425 13.4829C291.537 12.4953 290.347 11.8347 289.043 11.6059C287.908 11.3294 286.716 11.4085 285.627 11.8325C284.537 12.2566 283.602 13.0054 282.946 13.9789C282.785 14.2156 282.582 14.4202 282.347 14.5822C282.215 14.6394 282.072 14.6689 281.928 14.6689C281.784 14.6689 281.641 14.6394 281.509 14.5822L278.061 13.8046C277.818 13.7515 277.604 13.6078 277.461 13.4024C277.389 13.2933 277.341 13.1698 277.32 13.0402C277.299 12.9106 277.307 12.7781 277.342 12.6516C277.631 11.5813 278.18 10.6001 278.939 9.796C279.786 8.85659 280.791 8.07584 281.908 7.49003C283.133 6.83585 284.455 6.38324 285.822 6.14935C287.294 5.92214 288.796 5.99049 290.242 6.35045ZM286.487 31.0726C286.639 31.1025 286.783 31.1646 286.909 31.2547C287.036 31.3449 287.141 31.461 287.22 31.5954C287.304 31.727 287.362 31.8742 287.389 32.0284C287.417 32.1826 287.413 32.3408 287.379 32.4937L286.541 36.261C286.465 36.5644 286.276 36.8268 286.013 36.994C285.751 37.1612 285.434 37.2203 285.13 37.1593L281.442 36.328C281.291 36.2965 281.147 36.2338 281.021 36.1438C280.895 36.0539 280.789 35.9385 280.71 35.8052C280.625 35.6736 280.568 35.5265 280.54 35.3722C280.513 35.218 280.516 35.0598 280.55 34.9069L281.442 31.1396C281.473 30.9873 281.535 30.8431 281.625 30.7162C281.714 30.5893 281.829 30.4824 281.961 30.4022C282.089 30.3175 282.233 30.2596 282.384 30.232C282.535 30.2043 282.69 30.2075 282.84 30.2414L286.487 31.0726Z" fill="white"/>
</g>
<path d="M233.756 63.5841C233.855 63.4095 233.99 63.2575 234.15 63.1375C234.31 63.0176 234.493 62.9323 234.688 62.8869C234.879 62.8317 235.08 62.8174 235.277 62.8451C235.475 62.8728 235.664 62.9419 235.833 63.0478L240.08 65.5951C240.251 65.6969 240.401 65.8325 240.52 65.9937C240.639 66.1549 240.725 66.3385 240.772 66.5336C240.868 66.9286 240.811 67.3459 240.612 67.6999L238.136 71.8695C238.037 72.0425 237.902 72.1928 237.742 72.3105C237.581 72.4283 237.398 72.5109 237.204 72.5532C237.01 72.6079 236.808 72.6219 236.608 72.5942C236.409 72.5665 236.218 72.4978 236.046 72.3923L231.813 69.845C231.639 69.745 231.488 69.61 231.369 69.4486C231.25 69.2871 231.165 69.1026 231.12 68.9066C231.066 68.7137 231.053 68.5117 231.08 68.3132C231.108 68.1147 231.176 67.9242 231.28 67.7536L233.756 63.5841ZM205.227 48.9975C206.121 47.509 207.219 46.155 208.489 44.9754C209.697 43.8434 211.094 42.9356 212.616 42.2941C214.081 41.6752 215.661 41.3825 217.249 41.436C218.941 41.5045 220.588 42.0125 222.028 42.9108C223.191 43.5933 224.205 44.5053 225.01 45.5921C225.709 46.5295 226.261 47.5695 226.647 48.6757C227.027 49.7521 227.313 50.8602 227.499 51.9872C227.686 53.1134 227.859 54.1725 228.032 55.178C228.192 56.1308 228.433 57.0681 228.751 57.98C229.032 58.7994 229.534 59.5236 230.202 60.0715C230.484 60.2905 230.708 60.5759 230.854 60.9027C230.913 61.0869 230.931 61.2817 230.908 61.4738C230.885 61.6658 230.821 61.8506 230.721 62.0155L228.538 65.7023C228.328 66.0558 227.988 66.3113 227.592 66.4129C227.406 66.4804 227.206 66.5022 227.009 66.4766C226.812 66.451 226.624 66.3786 226.461 66.2654C225.341 65.5343 224.378 64.5864 223.625 63.4768C222.973 62.4675 222.453 61.3769 222.081 60.2324C221.725 59.1398 221.462 58.0185 221.296 56.8807C221.136 55.7545 220.976 54.6954 220.79 53.7167C220.641 52.7991 220.396 51.9002 220.057 51.0353C219.763 50.306 219.239 49.6939 218.566 49.2924C217.974 48.9193 217.299 48.7006 216.602 48.6562C215.904 48.6117 215.207 48.7428 214.573 49.0377C213.02 49.7424 211.742 50.9444 210.938 52.4564C210.139 53.7567 209.759 55.274 209.849 56.8005C209.94 58.327 210.497 59.7879 211.444 60.9831C211.664 61.2829 211.83 61.6185 211.937 61.9753C211.987 62.3497 211.892 62.7293 211.671 63.0344L209.341 66.9626C209.262 67.1025 209.157 67.2254 209.032 67.3243C208.906 67.4233 208.762 67.4962 208.609 67.5391C208.448 67.5875 208.279 67.5995 208.113 67.574C207.947 67.5485 207.789 67.4862 207.65 67.3916C206.469 66.6008 205.496 65.5336 204.815 64.2812C204.023 62.8574 203.482 61.306 203.217 59.6961C202.928 57.9204 202.928 56.1091 203.217 54.3334C203.531 52.4385 204.214 50.625 205.227 48.9975Z" fill="#F2D2A0"/>
<g opacity="0.6">
<path d="M233.756 63.5841C233.855 63.4095 233.99 63.2575 234.15 63.1375C234.31 63.0176 234.493 62.9323 234.688 62.8869C234.879 62.8317 235.08 62.8174 235.277 62.8451C235.475 62.8728 235.664 62.9419 235.833 63.0478L240.08 65.5951C240.251 65.6969 240.401 65.8325 240.52 65.9937C240.639 66.1549 240.725 66.3385 240.772 66.5336C240.868 66.9286 240.811 67.3459 240.612 67.6999L238.136 71.8695C238.037 72.0425 237.902 72.1928 237.742 72.3105C237.581 72.4283 237.398 72.5109 237.204 72.5532C237.01 72.6079 236.808 72.6219 236.608 72.5942C236.409 72.5665 236.218 72.4978 236.046 72.3923L231.813 69.845C231.639 69.745 231.488 69.61 231.369 69.4486C231.25 69.2871 231.165 69.1026 231.12 68.9066C231.066 68.7137 231.053 68.5117 231.08 68.3132C231.108 68.1147 231.176 67.9242 231.28 67.7536L233.756 63.5841ZM205.227 48.9975C206.121 47.509 207.219 46.155 208.489 44.9754C209.697 43.8434 211.094 42.9356 212.616 42.2941C214.081 41.6752 215.661 41.3825 217.249 41.436C218.941 41.5045 220.588 42.0125 222.028 42.9108C223.191 43.5933 224.205 44.5053 225.01 45.5921C225.709 46.5295 226.261 47.5695 226.647 48.6757C227.027 49.7521 227.313 50.8602 227.499 51.9872C227.686 53.1134 227.859 54.1725 228.032 55.178C228.192 56.1308 228.433 57.0681 228.751 57.98C229.032 58.7994 229.534 59.5236 230.202 60.0715C230.484 60.2905 230.708 60.5759 230.854 60.9027C230.913 61.0869 230.931 61.2817 230.908 61.4738C230.885 61.6658 230.821 61.8506 230.721 62.0155L228.538 65.7023C228.328 66.0558 227.988 66.3113 227.592 66.4129C227.406 66.4804 227.206 66.5022 227.009 66.4766C226.812 66.451 226.624 66.3786 226.461 66.2654C225.341 65.5343 224.378 64.5864 223.625 63.4768C222.973 62.4675 222.453 61.3769 222.081 60.2324C221.725 59.1398 221.462 58.0185 221.296 56.8807C221.136 55.7545 220.976 54.6954 220.79 53.7167C220.641 52.7991 220.396 51.9002 220.057 51.0353C219.763 50.306 219.239 49.6939 218.566 49.2924C217.974 48.9193 217.299 48.7006 216.602 48.6562C215.904 48.6117 215.207 48.7428 214.573 49.0377C213.02 49.7424 211.742 50.9444 210.938 52.4564C210.139 53.7567 209.759 55.274 209.849 56.8005C209.94 58.327 210.497 59.7879 211.444 60.9831C211.664 61.2829 211.83 61.6185 211.937 61.9753C211.987 62.3497 211.892 62.7293 211.671 63.0344L209.341 66.9626C209.262 67.1025 209.157 67.2254 209.032 67.3243C208.906 67.4233 208.762 67.4962 208.609 67.5391C208.448 67.5875 208.279 67.5995 208.113 67.574C207.947 67.5485 207.789 67.4862 207.65 67.3916C206.469 66.6008 205.496 65.5336 204.815 64.2812C204.023 62.8574 203.482 61.306 203.217 59.6961C202.928 57.9204 202.928 56.1091 203.217 54.3334C203.531 52.4385 204.214 50.625 205.227 48.9975Z" fill="white"/>
</g>
</svg>
